<?xml version="1.0" encoding="UTF-8" standalone="no"?> <svg xmlns="http://www.w3.org/2000/svg" xmlns:svg="http://www.w3.org/2000/svg" xml:space="preserve" width="168.731mm" height="207.5mm" style="clip-rule:evenodd;fill-rule:evenodd;image-rendering:optimizeQuality;shape-rendering:geometricPrecision;text-rendering:geometricPrecision" viewBox="-2 -2 168.731 207.5" version="1.1" id="svg49"> <defs id="defs1"> <linearGradient id="Gradient1" gradientTransform="scale(0.8993825,1.111874)" x1="20.236107" y1="28.780239" x2="202.36105" y2="28.780239" gradientUnits="userSpaceOnUse"> <stop style="stop-opacity:1;stop-color:#BD8D37" offset="0%" id="stop0"></stop> <stop style="stop-opacity:1;stop-color:#FDF080" offset="50%" id="stop1"></stop> <stop style="stop-opacity:1;stop-color:#BD8D37" offset="100%" id="stop2"></stop> </linearGradient> <style type="text/css" id="style1"> @font-face { font-family:"Arial Narrow";src:url("#FontID0") format(svg)} .fnt0 {font-weight:bold;font-size:18.6972;font-family:'Arial Narrow'} .kiemen {stroke:#000;stroke-width:1.0} .schwanz {stroke:#000;stroke-width:1.0} .auge {stroke:#000;stroke-width:1.0} .haut {stroke:#000;stroke-width:1.0} .flossen {stroke:#000;stroke-width:1.0} .contour {stroke:#000;stroke-width:1.0} .maul {stroke:#000;stroke-width:1.0} .schnur {stroke:#000;stroke-width:1.0} .rahmen_aussen {stroke:#000;stroke-width:1.0} .rahmen_innen {stroke:#000;stroke-width:1.0} .fil0 {fill:none} .fill_schwarz {fill:#000;fill-rule:nonzero} .filweiss {fill:#fff;fill-rule:nonzero;stroke:none} .filrot {fill:#f00;fill-rule:nonzero;stroke:none} .fillgoldverlauf { fill: url(#Gradient1); } .fillgold {fill:#ffd700;fill-rule:nonzero;stroke:none} </style> </defs> <g id="Ebene_x0020_1" transform="translate(-17.617568,-31.5)"> <polygon class="fillgoldverlauf" points="155,39.7 157,40.3 159,40.9 161,41.5 163,42.2 165,42.85 167,43.58 169,44.3 171,45.03 173,45.8 175,46.6 177,47.45 179,48.3 181,49.2 182,49.5 178,63 176,73 175,90 175,160 175,160 174.95,161 174.92,162 174.88,163 174.84,164 174.78,165 174.68,166 174.61,167 174.51,168 174.4,169 174.25,170 174.12,171 173.95,172 173.78,173 173.6,174 173.38,175 173.18,176 172.94,177 172.71,178 172.44,179 172.15,180 171.87,181 171.58,182 171.24,183 170.9,184 170.56,185 170.18,186 169.79,187 169.39,188 168.98,189 168.52,190 168.08,191 167.6,192 167.1,193 166.59,194 166.07,195 165.52,196 164.95,197 164.35,198 163.75,199 163.1,200 162.44,201 161.78,202 161.08,203 160.34,204 159.59,205 158.9,206 158.01,207 157.15,208 156.35,209 155.45,210 154,211.54 153,212.57 152,213.51 151,214.48 150,215.4 149,216.27 148,217.15 147,217.95 146,218.76 145,219.5 144,220.23 143,220.95 142,221.65 141,222.32 140,222.95 139,223.58 138,224.17 137,224.76 136,225.31 135,225.87 134,226.38 133,226.87 132,227.36 131,227.82 130,228.25 129,228.7 128,229.1 127,229.5 126,229.86 125,230.24 124,230.58 123,230.91 122,231.24 121,231.52 120,231.8 119,232.09 118,232.33 117,232.56 116,232.8 115,233 114,233.18 113,233.39 112,233.55 111,233.7 110,233.85 109,233.96 108,234.1 107,234.17 106,234.28 105,234.33 104,234.38 103,234.42 102,234.47 101,234.5 99,234.5 98,234.475 97,234.42 96,234.38 95,234.33 94,234.28 93,234.17 92,234.1 91,233.96 90,233.85 89,233.7 88,233.55 87,233.39 86,233.18 85,233 84,232.8 83,232.56 82,232.33 81,232.09 80,231.8 79,231.52 78,231.24 77,230.91 76,230.58 75,230.24 74,229.86 73,229.499 72,229.1 71,228.7 70,228.255 69,227.82 68,227.36 67,226.87 66,226.38 65,225.87 64,225.31 63,224.765 62,224.17 61,223.58 60,222.95 59,222.32 58,221.65 57,220.95 56,220.23 55,219.5 54,218.76 53,217.95 52,217.15 51,216.27 50,215.4 49,214.48 48,213.51 47,212.57 46,211.54 44.55,210 43.65,209 42.85,208 41.99,207 39.66,204 38.92,203 38.22,202 37.56,201 36.9,200 36.25,199 35.65,198 35.05,197 34.48,196 33.93,195 33.41,194 32.9,193 32.4,192 31.92,191 31.48,190 31.02,189 30.61,188 30.21,187 29.82,186 29.44,185 29.1,184 28.76,183 28.42,182 28.13,181 27.85,180 27.56,179 27.29,178 27.06,177 26.82,176 26.62,175 26.4,174 26.22,173 26.05,172 25.88,171 25.75,170 25.6,169 25.49,168 25.39,167 25.32,166 25.22,165 25.16,164 25.12,163 25.08,162 25.05,161 25,160 25,90 24,73 22,63 18.2,49.5 19,49.2 21,48.3 23,47.45 25,46.6 27,45.8 29,45.03 31,44.3 33,43.58 35,42.85 37,42.2 39,41.5 41,40.9 43,40.3 45,39.7 47,39.15 49,38.62 51,38.1 53,37.6 55,37.15 57,36.7 59,36.25 61,35.85 63,35.45 65,35.1 67,34.75 69,34.43 71,34.12 73,33.85 75,33.57 77,33.32 79,33.12 81,32.9 83,32.72 85,32.57 87,32.41 89,32.3 91,32.2 93,32.15 95,32.1 97,32.05 99,32 101,32 103,32.05 105,32.1 107,32.15 109,32.2 111,32.3 113,32.41 115,32.57 117,32.72 119,32.9 121,33.12 123,33.32 125,33.57 127,33.85 129,34.12 131,34.43 133,34.75 135,35.1 137,35.45 139,35.85 141,36.25 143,36.7 145,37.15 147,37.6 149,38.1 151,38.62 153,39.15 " id="polygon1" style="fill:url(#Gradient1)"></polygon> <polygon class="filweiss" points="105,80.1 102,80 98,80 95,80.1 92,80.2 89,80.3 86,80.5 83,80.7 80,81 77,81.3 74,81.7 71,82.1 68,82.5 65,83 62,83.6 59,84.2 56,84.8 53,85.6 50,86.4 47,87.2 44,88 41,88.9 38,89.8 35,90.9 35,90 35,87 34.9,85 34.8,82 34.6,79 34.2,76 33.8,73 33.4,70 32.8,67 32.3,64 31.6,61 30.8,58 30,55 30,54.6 33,53.5 36,52.5 39,51.5 42,50.65 45,49.8 48,49 51,48 54,47.5 58,46.5 61,45.9 64,45.3 67,44.7 70,44.4 75,43.5 80,43 85,42.5 90,42.3 95,42.15 98,42 102,42 105,42.15 110,42.3 115,42.5 120,43 125,43.5 130,44.4 133,44.7 136,45.3 139,45.9 142,46.5 146,47.5 149,48 152,49 155,49.8 158,50.65 161,51.5 164,52.5 167,53.5 170,54.6 170,55 169.2,58 168.4,61 167.7,64 167.2,67 166.6,70 166.2,73 165.8,76 165.4,79 165.2,82 165.1,85 165,87 165,90 165,90.9 162,89.8 159,88.9 156,88 153,87.2 150,86.4 147,85.6 144,84.8 141,84.2 138,83.6 135,83 132,82.5 129,82.1 126,81.7 123,81.3 120,81 117,80.7 114,80.5 111,80.3 108,80.2 " id="polygon2"></polygon> <polygon class="filrot" points="105,224.3 108,224 111,223.56 114,222.98 117,222.25 120,221.35 123,220.3 126,219.05 129,217.6 132,216.06 135,214.25 138,212.25 141,209.9 144,207.33 147,204.3 150,201 153,197.1 156,192.5 159,186.7 160.5,183.3 162,179 163,175.35 164,171 164.5,167.5 164.8,164.5 164.9,160.5 165,150 165,100.9 162,99.9 159,98.95 156,98.04 153,97.17 150,96.38 147,95.63 144,94.93 141,94.29 138,93.68 135,93.11 132,92.61 129,92.15 126,91.71 123,91.36 120,91.03 117,90.73 114,90.49 111,90.32 108,90.15 105,90.08 103.5,90 103.5,224.35 " id="polygon3"></polygon> <polygon class="filweiss" points="96.5,110.58 77.8055,91.2444 79,91.12 81,90.95 83,90.75 85,90.6 87,90.45 89,90.37 91,90.25 93,90.17 95,90.05 96.5,90.05 " id="polygon4"></polygon> <polygon class="filrot" points="54,95.4 56,94.93 58,94.5 60,94.08 62,93.67 64,93.28 66,92.9 68,92.57 70,92.25 72,91.96 72.8,91.85 96.5,116.401 96.5,140.58 53.0183,95.6075 " id="polygon5"></polygon> <polygon class="filweiss" points="96.5,146.58 96.5,170.58 35,106.972 35,100.95 38,99.9 41,98.96 44,98.05 47,97.17 48.3614,96.7909 " id="polygon6"></polygon> <polygon class="filrot" points="35,112.972 96.5,176.5 96.5,200.58 35,136.971 35,112.972 35,136.971 " id="polygon7"></polygon> <polygon class="filweiss" points="96.5,206.58 96.5,224.4 95,224.28 91,223.85 89.8,223.64 35.6,167.6 35.44,166 35.25,164.5 35.15,163 35.09,162.5 35,160 35,142.971 " id="polygon8"></polygon> <polygon class="filrot" points="38,179 40,184.5 42,188.8 44,192.45 46,195.65 48,198.5 50,201 52,203.3 54,205.4 56,207.35 58,209.1 60,210.75 62,212.25 64,213.62 66,214.89 68,216.05 70,217.15 72,218.15 74,219.05 76,219.88 78,220.65 80,221.33 82.5132,222.114 36.8301,174.864 " id="polygon9"></polygon> <path id="polygon10" class="filweiss" d="m 156.06721,172 -0.1584,2 -0.1,2 -0.3168,1.9416 L 154.9,180 l -0.3,2 -0.45,2 -0.55,2 -0.6,2 -0.85,2 -0.9,2 -1.1,2 -1.25,2 -0.9,1.2 -1,1.3 -1,1.2 -1,1 -1,1 -1,0.8 -1,0.75 -1,0.65 -1,0.56 -1,0.51 -1,0.48 -1,0.4 -1,0.45 -1,0.35 -1,0.35 -1,0.35 -1,0.3 -1,0.3 -1,0.3 -1,0.25 -1,0.35 -1,0.25 -1,0.3 -1,0.3 -1,0.3 -1,0.35 -1,0.3 -1,0.35 -1,0.4 -1,0.4 -1,0.45 -1,0.45 -1,0.55 -1,0.6 -1,0.65 -0.71093,0.69778 -0.59352,0.59777 L 111.9,215 111.8,214.5 V 214 l 0.15425,-0.83482 -0.49777,-1.08259 L 111.2,211 l 0.0332,-1.1752 0.35,-1.17521 0.32479,-0.59119 L 112.4,207.5 V 205 l 0.1,-1 0.3,-1 0.35799,-1.1168 0.65841,-0.9416 L 114.8,200 l 0.9,-0.8 0.96518,-0.39676 L 115.75,198 l -1.15,-1 -0.9,-1 -0.6,-1 -0.35,-1 -0.25,-1 -0.1,-1 v -1 l 0.1,-1 0.15,-1 0.35,-1.5 0.5,-1.6 0.5,-1.4 1,-2.5 0.5,0.7 0.5,1.7 1,2.6 1,2 1,1.7 1,1.3 1,1.1 1,0.9 1,0.7 1,0.6 1,0.45 1,0.3 1,0.18 1,0.12 1,0.05 1,-0.05 1,-0.12 1,-0.18 1,-0.25 2,-0.7 1,-0.4 1,-0.5 1,-0.5 1,-0.6 1.7,-1.1 2.2,-1.6 0.2,-2.4 0.1,-1 0.1668,-1.5164 -8.7168,-9.1336 4.4248,-11.89078 -0.94201,-1.99201 -1.11201,-2.46721 -0.91,-2 -0.89159,-1.8248 -1.07841,-2.1168 -1.1584,-1.76639 -1.1416,-2.05841 -1.08319,-1.94159 -1.2216,-1.8832 -1.3616,-2.0584 -1.5952,-2.17521 -1.53,-1.88319 -1.4248,-2 -1.5916,-2.05841 -1.6832,-2.0584 -1.60799,-1.82479 -1.7,-2.0584 -1.6168,-2 L 114.1,126 l -1.23482,-2.12389 -1.02611,-1.9587 -0.92065,-2.0413 -0.81194,-1.91741 -0.64259,-2.04129 L 108.93,114 l -0.23,-2 -0.05,-2 0.05,-2 0.18,-2 0.27,-2 0.45,-2 0.2332,-1.1752 0.45,-1.058405 0.4168,-0.792006 0.39119,-0.415988 0.46722,-0.116803 0.4336,-0.0832 0.4168,0.133605 0.89119,0.131888 1.9,0.376112 1.6,0.5 1.5,0.499997 2.3,1 1.8587,1.12389 1.7913,1.02065 1.52065,1.04129 1.28805,0.97936 1.3413,1 1.11741,1.06194 1.12065,1 1.93805,1.93806 1.86,1.9587 L 136.2,114 l 1.55,2 1.4,2 1.35,2 1.25,2 1.2,2 1.1,2 1.34201,1.8248 1,1.9416 1.1168,1.88319 1.0865,1.95354 0.9,1.93385 0.77386,1.66927 1.12458,2.26458 0.68385,2 0.81615,2.19844 0.57156,2.33073 0.7,1.86771 0.42542,2.06614 L 154.99,152 l 0.31,2 0.13,1 0.313,2.781 4.992,6.064 -4.62479,6.98838 z"></path> <path class="fil0 rahmen_aussen" d="M 25,159.5 V 89.92135 C 25,76.1586 22.74732,62.548646 18.238964,49.477317 44.090308,37.813187 71.6267,32 99.9992,32 c 28.2514,0 55.9757,5.90306 81.72765,17.48833 C 177.3654,62.0882 175,76.0061 175,89.92135 V 159.5 c 0,41.4142 -33.5858,75 -75,75 -41.4143,0 -75,-33.5858 -75,-75" id="rahmen_aussen"></path> <path class="fil0 rahmen_innen" d="M 99.9992,42 C 75.8509,42 52.479462,46.193846 29.888104,54.712843 33.164347,66.033041 35,78.2035 35,90 l -0.0072,0.85949 C 56.008909,83.589397 77.7318,80 99.9992,80 c 22.2689,0 43.97354,3.585747 65.00069,10.864719 L 165,90 C 164.9503,78.203605 166.82835,66.036691 170.11367,54.701893 147.53139,46.168295 124.149,42 99.9992,42" id="rahmen_schrift"></path> <path class="fil0 rahmen_innen" d="m 103.5,100 0.003,-10.089058 c 21.29514,0.314042 41.39278,4.008146 61.50444,10.977958 L 165,159.5 c 0,34.7894 -26.73602,63.41048 -61.49281,64.91309 L 103.5,100" id="rahmen_fisch"></path> <path class="fil0 rahmen_innen" d="M 96.5,93.283333 V 110.58 L 78.517133,91.980437 77.809983,91.245316 c 6.694683,-0.756084 11.96466,-1.126968 18.684988,-1.222592 l 0.005,3.260609" id="rahmen_links1"></path> <path class="fil0 rahmen_innen" d="M 74.75915,118.09375 53.012379,95.601149 C 59.745358,93.958398 66.3284,92.7348 72.815,91.8071 L 96.5,116.401 V 140.58 L 74.75915,118.09375" id="rahmen_links2"></path> <path class="fil0 rahmen_innen" d="m 35,103.811 v 3.161 l 61.5,63.608 v -24 L 48.364643,96.792501 c -4.806058,1.271902 -8.68079,2.442615 -13.366743,4.055909 L 35,103.811" id="rahmen_links3"></path> <path class="fil0 rahmen_innen" d="M 35,136.971 V 112.972 L 96.5,176.5 v 24.08 0 L 65.75,168.7755 35,136.971" id="rahmen_links4"></path> <path class="fil0 rahmen_innen" d="m 62.66995,195.5905 27.129642,28.09175 c 2.597791,0.42506 4.059092,0.59975 6.69705,0.7099 L 96.5,206.58 35,142.971 l 0.0081,14.8477 c 0,0.365 -0.008,0.7618 -0.008,1.1347 0,3.0235 0.154837,5.62884 0.574674,8.61875 L 62.66995,195.5905" id="rahmen_links5"></path> <path class="fil0 rahmen_innen" d="m 59.67165,198.489 22.835629,23.62529 C 71.072139,218.83758 60.759832,212.55701 52.74566,204.06525 45.116709,195.98167 39.578031,185.8835 36.835449,174.88575 L 59.67165,198.489" id="rahmen_links6"></path> <path class="fil0 contour" d="m 143.039,190.233 c 1.9515,-21.4813 -11.2125,-43.35709 -25.0445,-58.60959 -3.22225,-4.2735 -5.56213,-8.178 -7.09644,-11.77188 -1.53431,-3.59387 -2.26306,-6.87712 -2.26306,-9.90812 0,-3.213 0.66481,-10.628607 2.92081,-11.608607 2.92988,0.49075 5.61281,0.96105 8.37338,2.449637 2.76057,1.48858 5.83237,3.17784 8.37195,5.40568 5.07916,4.45568 9.04041,9.0148 11.7978,13.30605 7.51977,11.70281 12.68615,20.23779 14.82977,32.27373 3.2005,16.6115 1.41829,37.6491 -10.35071,49.4191 -7.38,7.38 -26.082,8.149 -31.9295,14.674 -3.1605,-3.973 4.0065,-6.963 6.6235,-8.402 3.545,-1.949 4.839,-1.894 8.356,-2.935 2.402,-0.711 2.364,-0.588 2.3505,-1.08 -1.42512,-0.0391 -1.98612,-0.0636 -3.2535,-0.173 -4.34186,-0.3747 -9.647,-3.785 -12.395,-6.533 -3.702,-3.702 -1.228,-10.627 0.67,-14.74025 0.26286,0.27043 0.6189,1.18775 1.005,2.34475 6.6355,19.8879 22.7373,11.6354 33.165,0.1675" id="path10"></path> <path class="fil0 maul" d="m 111.33537,98.599071 c 0.946,2.820999 1.67563,4.353929 2.65163,7.566929 1.089,3.587 2.10847,8.01506 2.088,11.272 l -0.0413,6.57148" id="path6"></path> <path class="fil0 maul" d="m 111.31507,98.459479 c 4.51,3.578001 6.914,6.626001 8.585,11.125001 0.352,0.949 0.78093,2.90952 0.26193,6.59152 -0.173,1.224 -0.675,3.672 -2.092,5.559 -0.69,0.919 -2.15048,2.59948 -4.09748,3.88848" id="path7"></path> <path class="fil0 schwanz" d="m 130.01,201.027 c -5.363,0.206 -13.461,-4.115 -14.734,-10.707 -0.505,-2.613 -0.454,-5.656 -0.276,-8.246" id="path8"></path> <line class="fil0 schwanz" x1="130.089" y1="208.22" x2="130" y2="196.317" id="line9"></line> <path class="fil0 schwanz" d="m 122.384,202.277 c -7.167,2.939 -13.275,5.021 -10.475,10.871" id="path11"></path> <path class="fil0 schwanz" d="m 116.647,198.804 c -1.654,0.993 -2.333,1.136 -3.392,3.067 -0.757,1.38 -0.833,3.986 -0.833,5.622" id="path12"></path> <polyline class="fil0 haut" points="135.61,128.927 140.635,132.445 140.635,127.587" id="polyline12"></polyline> <polyline class="fil0 haut" points="135.653,134.262 135.57,144.3 140.845,149.17 146.037,143.977" id="polyline13"></polyline> <polyline class="fil0 haut" points="146.493,150.045 149.468,153.534 150.589,149.088" id="polyline14"></polyline> <polyline class="fil0 haut" points="140,157 142.178,159.094 144.355,154.906" id="polyline15"></polyline> <polyline class="fil0 haut" points="147.985,158.158 150.283,162.611 152.582,158.158" id="polyline16"></polyline> <polyline class="fil0 haut" points="144.909,167.336 148.697,170.59 149.155,165.618" id="polyline17"></polyline> <polyline class="fil0 flossen" points="155.841 158.07 160.735 163.745 156.20 170.661" id="polyline18"></polyline> <circle class="fil0 auge" cx="126.021" cy="111.566" r="2.01" id="circle18"></circle> <path class="fil0 kiemen" d="m 120.213,127.886 c 3.573,-0.32 4.787,-0.956 7.035,-2.08 2.192,-1.094 5.197,-2.607 6.533,-5.29 0.271,-0.545 0.532,-1.016 0.557,-2.265" id="path18"></path> <path class="fil0 kiemen" d="m 126.65,118.843 c 1.479,-0.422 1.441,-0.398 2.655,-1.251 1.102,-0.774 1.371,-1.227 1.868,-1.931 0.394,-0.558 0.657,-0.896 1.005,-1.985" id="path19"></path> <polyline class="fil0 flossen" points="138.986 164.448 138.04 167.108 134.603 176.381 143.242 185.44" id="polyline19"></polyline> <path class="fil0 schnur" d="M 165.16802,107.925 H 162.848 c -11.231,0 -20.622,6.159 -14.907,17.587 4.029,8.043 12.06,0.336 12.06,-6.7 0,-16.812 -32.466,-15.437 -42.88,-14.075" id="path20"></path> <path class="fill_schwarz" d="m 36.9817,60.8542 2.7122,-0.8237 c 0.7404,-0.2258 1.2797,-0.3158 1.6217,-0.2718 0.342,0.0419 0.67,0.2019 0.9799,0.4797 0.3118,0.2759 0.5333,0.6297 0.666,1.0595 0.1207,0.3959 0.1429,0.7797 0.0644,1.1515 -0.0786,0.3738 -0.2354,0.6797 -0.4688,0.9175 0.4446,0.02 0.835,0.168 1.1669,0.4418 0.3341,0.274 0.5756,0.6577 0.7284,1.1516 0.1831,0.5956 0.1932,1.1454 0.0323,1.6452 -0.1631,0.5018 -0.4266,0.8595 -0.7908,1.0755 -0.2536,0.1519 -0.8813,0.3778 -1.8812,0.6816 l -2.3039,0.7017 z m 1.7847,0.9515 0.5834,1.8991 0.9035,-0.2739 c 0.5412,-0.1658 0.8712,-0.2758 0.994,-0.3338 0.2213,-0.108 0.3742,-0.2618 0.4566,-0.4597 0.0825,-0.198 0.0826,-0.4339 -0.0019,-0.7058 -0.0745,-0.2438 -0.1891,-0.4238 -0.3421,-0.5437 -0.1549,-0.118 -0.3118,-0.1719 -0.4768,-0.164 -0.163,0.01 -0.6057,0.124 -1.328,0.3419 z m 1.004,3.2644 0.6761,2.195 1.2676,-0.3837 c 0.5573,-0.17 0.9054,-0.3079 1.0442,-0.4119 0.1409,-0.1059 0.2373,-0.2599 0.2938,-0.4638 0.0543,-0.2019 0.0422,-0.4338 -0.0383,-0.6957 -0.0845,-0.2678 -0.2092,-0.4717 -0.3763,-0.6117 -0.169,-0.1379 -0.3581,-0.2118 -0.5673,-0.2179 -0.2093,-0.008 -0.6076,0.076 -1.1952,0.2539 z" id="path13"></path> <path class="fill_schwarz" d="m 48.7724,64.4925 1.3741,-0.08 c -0.0119,0.6497 -0.1608,1.1694 -0.4506,1.5593 -0.2897,0.3898 -0.6982,0.6557 -1.2254,0.7956 -0.7323,0.1959 -1.3641,0.102 -1.8933,-0.2779 -0.6237,-0.4398 -1.0724,-1.1695 -1.346,-2.187 -0.2717,-1.0035 -0.2496,-1.8691 0.0603,-2.5988 0.2656,-0.6156 0.7163,-1.0094 1.3541,-1.1795 0.7103,-0.1878 1.336,-0.0759 1.8793,0.3359 0.6237,0.4738 1.0925,1.2894 1.4044,2.4509 l 0.0442,0.1839 -3.2857,0.8736 c 0.1369,0.4737 0.3421,0.8116 0.6198,1.0175 0.2777,0.2039 0.5613,0.2679 0.853,0.19 0.4227,-0.112 0.6259,-0.4718 0.6118,-1.0835 z m -0.3602,-1.6253 c -0.1368,-0.4638 -0.3319,-0.7896 -0.5855,-0.9756 -0.2535,-0.1839 -0.511,-0.2418 -0.7726,-0.1719 -0.2777,0.074 -0.4769,0.258 -0.6016,0.5538 -0.1268,0.2998 -0.1268,0.6717 -0.0041,1.1155 z" id="path14"></path> <path class="fill_schwarz" d="m 51.1484,65.8778 -0.2896,-1.2494 1.2716,-3.0386 c 0.2072,-0.4958 0.3621,-0.8496 0.4667,-1.0615 -0.1509,0.046 -0.3521,0.1 -0.6035,0.162 l -1.7606,0.4157 -0.3079,-1.3294 4.1328,-0.9475 0.2635,1.1355 -1.2917,3.1065 -0.4648,1.0395 c 0.3602,-0.1119 0.5856,-0.1779 0.6741,-0.1979 l 2.0483,-0.4697 0.328,1.4093 z" id="path15"></path> <path class="fill_schwarz" d="m 55.0379,57.6597 -0.3179,-1.4893 1.3319,-0.2819 0.3179,1.4893 z m 1.4788,6.9067 -1.3018,-6.0831 1.332,-0.2798 1.3017,6.0831 z" id="path16"></path> <path class="fill_schwarz" d="m 60.5488,63.8527 -1.336,0.258 -1.1931,-6.1052 1.2374,-0.2379 0.169,0.8676 c 0.1329,-0.4478 0.2717,-0.7536 0.4125,-0.9175 0.1429,-0.166 0.322,-0.2679 0.5432,-0.312 0.3038,-0.0579 0.6158,-0.0119 0.9336,0.136 l -0.1428,1.4893 c -0.2535,-0.1339 -0.4788,-0.1819 -0.6761,-0.1439 -0.1851,0.036 -0.334,0.1359 -0.4487,0.2978 -0.1147,0.164 -0.1669,0.4299 -0.1589,0.7976 0.008,0.3699 0.1047,1.0296 0.2917,1.9852 z" id="path17"></path> <polygon class="fill_schwarz" points="61.4541,55.0669 62.7962,54.833 63.5909,59.3189 64.7699,56.888 66.4179,56.6001 65.0859,59.139 67.6271,62.7013 66.1865,62.9532 64.4219,60.4264 63.947,61.324 64.2952,63.285 62.9551,63.521 " id="polygon17"></polygon> <path class="fill_schwarz" d="m 67.6694,60.8861 1.3119,-0.4377 c 0.2072,0.6297 0.6156,0.9015 1.2234,0.8156 0.3218,-0.044 0.5552,-0.14 0.6961,-0.2859 0.1429,-0.146 0.1992,-0.3178 0.1711,-0.5137 -0.0181,-0.1361 -0.0685,-0.238 -0.1491,-0.3059 -0.0843,-0.066 -0.2413,-0.114 -0.4667,-0.142 -1.1468,-0.1339 -1.8874,-0.3138 -2.2253,-0.5337 -0.4185,-0.2779 -0.6701,-0.7017 -0.7505,-1.2735 -0.0805,-0.5717 0.0361,-1.0554 0.3541,-1.4513 0.3179,-0.3958 0.8249,-0.6417 1.5211,-0.7376 0.664,-0.094 1.1892,-0.0359 1.5714,0.1739 0.3823,0.2079 0.6841,0.5878 0.9055,1.1415 l -1.2254,0.4598 c -0.183,-0.4778 -0.5372,-0.6817 -1.0624,-0.6077 -0.3319,0.0459 -0.5593,0.1259 -0.6861,0.2399 -0.1266,0.1159 -0.1791,0.2478 -0.1588,0.3978 0.02,0.1359 0.0985,0.2398 0.2393,0.3098 0.1429,0.076 0.5613,0.1579 1.2575,0.2499 0.7786,0.104 1.3261,0.2859 1.6359,0.5477 0.3058,0.2599 0.4949,0.6378 0.5653,1.1336 0.0846,0.5936 -0.0522,1.1134 -0.4084,1.5572 -0.3561,0.4437 -0.8954,0.7177 -1.6198,0.8176 -0.6558,0.092 -1.2172,0.006 -1.678,-0.2579 -0.4628,-0.2659 -0.8028,-0.6977 -1.0221,-1.2974 z" id="path21"></path> <path class="fill_schwarz" d="m 72.5425,55.7706 0.7486,-0.092 -0.0565,-0.4637 c -0.0703,-0.5618 -0.0662,-0.9756 0.0102,-1.2415 0.0743,-0.2638 0.2253,-0.4818 0.4465,-0.6557 0.2215,-0.1719 0.5091,-0.2798 0.8593,-0.3218 0.3822,-0.048 0.7645,-0.024 1.1488,0.0719 l -0.0341,1.1595 c -0.2275,-0.0359 -0.4386,-0.04 -0.6379,-0.016 -0.1911,0.022 -0.3219,0.094 -0.3943,0.2139 -0.0724,0.118 -0.0906,0.3358 -0.0503,0.6537 l 0.0544,0.4358 1.0059,-0.1219 0.1589,1.2834 -1.0059,0.1239 0.6036,4.8857 -1.3461,0.164 -0.6036,-4.8858 -0.7485,0.09 z" id="path22"></path> <path class="fill_schwarz" d="m 76.45,54.4971 -0.159,-1.5133 1.3542,-0.1419 0.1589,1.5133 z m 0.7444,7.0247 -0.6559,-6.185 1.3542,-0.142 0.6559,6.1851 z" id="path23"></path> <path class="fill_schwarz" d="m 79.3151,59.5687 1.334,-0.3698 c 0.1751,0.6397 0.5675,0.9336 1.1791,0.8796 0.3239,-0.028 0.5613,-0.1119 0.7103,-0.2499 0.1509,-0.1379 0.2172,-0.3058 0.1991,-0.5058 -0.012,-0.1359 -0.0563,-0.2398 -0.1347,-0.3118 -0.0806,-0.07 -0.2334,-0.126 -0.4567,-0.1659 -1.1389,-0.1939 -1.8693,-0.4098 -2.1933,-0.6498 -0.4063,-0.2978 -0.6337,-0.7336 -0.6841,-1.3093 -0.0502,-0.5757 0.0926,-1.0515 0.4307,-1.4313 0.3381,-0.3778 0.8571,-0.5977 1.5573,-0.6578 0.668,-0.058 1.1891,0.026 1.5594,0.256 0.3722,0.2278 0.6538,0.6236 0.8451,1.1874 l -1.2496,0.3958 c -0.1569,-0.4878 -0.4989,-0.7097 -1.0281,-0.6637 -0.332,0.03 -0.5654,0.0979 -0.6983,0.206 -0.1327,0.1079 -0.191,0.2358 -0.179,0.3877 0.0121,0.136 0.0865,0.244 0.2233,0.3219 0.1388,0.0819 0.5513,0.1879 1.2415,0.3158 0.7745,0.144 1.3099,0.3538 1.6056,0.6298 0.2918,0.2758 0.4608,0.6636 0.505,1.1614 0.0523,0.5997 -0.1106,1.1115 -0.4889,1.5352 -0.3802,0.4259 -0.9336,0.6697 -1.66,0.7318 -0.6619,0.0579 -1.2173,-0.058 -1.6639,-0.3458 -0.4467,-0.288 -0.7646,-0.7378 -0.9538,-1.3475 z" id="path24"></path> <path class="fill_schwarz" d="m 89.486,56.1484 -1.3139,0.3838 c -0.1428,-0.6417 -0.4748,-0.9455 -0.992,-0.9096 -0.3319,0.0221 -0.5915,0.182 -0.7747,0.4759 -0.185,0.2938 -0.2534,0.7735 -0.2051,1.4413 0.0502,0.7356 0.1891,1.2473 0.4145,1.5372 0.2253,0.2899 0.5091,0.4219 0.849,0.3978 0.2555,-0.0159 0.4588,-0.1179 0.6097,-0.3018 0.1529,-0.1859 0.2495,-0.4998 0.2898,-0.9455 l 1.352,0.1818 c -0.169,1.5153 -0.9054,2.317 -2.2112,2.4069 -0.8331,0.058 -1.4749,-0.2139 -1.9236,-0.8155 -0.4466,-0.6038 -0.7021,-1.3495 -0.7644,-2.237 -0.0766,-1.0616 0.0964,-1.8872 0.513,-2.4729 0.4185,-0.5877 0.9959,-0.9055 1.7384,-0.9575 0.5975,-0.042 1.0986,0.082 1.499,0.3718 0.4004,0.2879 0.7062,0.7696 0.9195,1.4433 z" id="path25"></path> <path class="fill_schwarz" d="m 91.8923,51.8664 0.1106,3.1545 c 0.2052,-0.3198 0.4346,-0.5618 0.6902,-0.7257 0.2554,-0.1619 0.5371,-0.2499 0.843,-0.2599 0.4084,-0.014 0.7546,0.082 1.0363,0.2858 0.2816,0.206 0.4889,0.5039 0.6216,0.8936 0.0966,0.286 0.157,0.7758 0.1811,1.4693 l 0.1288,3.6464 -1.356,0.046 -0.1148,-3.2825 c -0.0261,-0.7616 -0.0925,-1.2354 -0.1973,-1.4233 -0.1467,-0.252 -0.3842,-0.3719 -0.7142,-0.3619 -0.35,0.012 -0.6178,0.162 -0.8007,0.4478 -0.1851,0.2859 -0.2636,0.8096 -0.2376,1.5753 l 0.1087,3.1125 -1.36,0.048 -0.3019,-8.58 z" id="path26"></path> <path class="fill_schwarz" d="m 99.8641,58.1774 1.3501,0.2739 c -0.1811,0.6257 -0.4628,1.0895 -0.843,1.3913 -0.3824,0.3039 -0.8452,0.4538 -1.3904,0.4538 -0.7585,0 -1.3441,-0.2518 -1.7585,-0.7556 -0.487,-0.5857 -0.7303,-1.4054 -0.7303,-2.4589 0,-1.0395 0.2453,-1.8711 0.7363,-2.4948 0.4165,-0.5278 0.9558,-0.7916 1.6157,-0.7916 0.7344,0 1.3119,0.2698 1.7284,0.8096 0.4788,0.6157 0.7182,1.5253 0.7182,2.7287 l -0.006,0.1879 h -3.4004 c 0.0081,0.4918 0.1188,0.8716 0.3321,1.1415 0.2153,0.2699 0.4727,0.4038 0.7746,0.4038 0.4366,0 0.7284,-0.2959 0.8732,-0.8896 z m 0.0765,-1.6632 c -0.0121,-0.4838 -0.1167,-0.8496 -0.3119,-1.0935 -0.1972,-0.2439 -0.4306,-0.3658 -0.7022,-0.3658 -0.2857,0 -0.5292,0.1279 -0.7243,0.3818 -0.2012,0.2579 -0.2998,0.6157 -0.2958,1.0775 z" id="path27"></path> <path class="fill_schwarz" d="m 103.695,60.1565 h -1.3622 v -6.2191 h 1.2616 v 0.8836 c 0.2173,-0.4138 0.4104,-0.6877 0.5814,-0.8236 0.1711,-0.134 0.3683,-0.2019 0.5916,-0.2019 0.3098,0 0.6077,0.1039 0.8914,0.3118 l -0.4246,1.4334 c -0.2253,-0.178 -0.4366,-0.2679 -0.6379,-0.2679 -0.1891,0 -0.3541,0.0679 -0.4969,0.2079 -0.1449,0.1379 -0.2475,0.3878 -0.3099,0.7516 -0.0623,0.3639 -0.0945,1.0316 -0.0945,2.0031 z" id="path28"></path> <path class="fill_schwarz" d="m 109.25,58.2414 1.3461,0.2998 c -0.1932,0.6198 -0.481,1.0796 -0.8673,1.3754 -0.3863,0.2959 -0.853,0.4378 -1.3983,0.4298 -0.7586,-0.014 -1.3401,-0.2758 -1.7424,-0.7856 -0.4769,-0.5938 -0.7063,-1.4174 -0.6882,-2.4729 0.0181,-1.0375 0.2777,-1.8631 0.7806,-2.4809 0.4247,-0.5197 0.9679,-0.7736 1.6278,-0.7615 0.7345,0.0119 1.3059,0.2918 1.7123,0.8376 0.4688,0.6257 0.6922,1.5392 0.67,2.7407 l -0.008,0.1879 -3.4004,-0.06 c -1e-4,0.4918 0.1046,0.8736 0.3138,1.1474 0.2093,0.2739 0.4648,0.4119 0.7667,0.4179 0.4366,0.008 0.7323,-0.2838 0.8873,-0.8756 z m 0.1066,-1.6613 c -0.004,-0.4837 -0.1005,-0.8495 -0.2937,-1.0974 -0.1911,-0.2459 -0.4226,-0.3718 -0.6942,-0.3778 -0.2877,-0.004 -0.5311,0.1179 -0.7303,0.3678 -0.2053,0.2559 -0.31,0.6117 -0.3139,1.0735 z" id="path29"></path> <path class="fill_schwarz" d="m 111.993,53.2437 0.0543,-1.5213 1.3602,0.0479 -0.0522,1.5214 z m -0.2474,7.0567 0.2193,-6.2131 1.3602,0.0459 -0.2194,6.2152 z" id="path30"></path> <polygon class="fill_schwarz" points="114.305,56.4822 116.971,56.6221 116.884,58.2654 114.218,58.1255 " id="polygon30"></polygon> <polygon class="fill_schwarz" points="120.606,58.7032 122.89,52.5241 124.403,52.6561 121.125,60.9881 119.6,60.8562 117.834,52.0843 119.379,52.2182 " id="polygon31"></polygon> <path class="fill_schwarz" d="m 127.017,59.6508 1.3139,0.4137 c -0.2455,0.6018 -0.5735,1.0336 -0.9839,1.2954 -0.4105,0.2619 -0.8873,0.3639 -1.4306,0.3079 -0.7545,-0.08 -1.3118,-0.3899 -1.6679,-0.9336 -0.4226,-0.6337 -0.5796,-1.4753 -0.4689,-2.5228 0.1087,-1.0335 0.4407,-1.8351 0.996,-2.4049 0.4688,-0.4817 1.0321,-0.6876 1.6882,-0.6177 0.7323,0.076 1.2755,0.4039 1.6337,0.9815 0.4126,0.6638 0.5534,1.5933 0.4286,2.7888 l -0.0262,0.1859 -3.3822,-0.3519 c -0.0443,0.4898 0.0261,0.8797 0.2112,1.1695 0.1831,0.2899 0.4266,0.4517 0.7283,0.4818 0.4327,0.0459 0.7526,-0.2179 0.9598,-0.7936 z m 0.2515,-1.6473 c 0.0402,-0.4818 -0.0261,-0.8556 -0.1951,-1.1175 -0.169,-0.2638 -0.3904,-0.4098 -0.66,-0.4378 -0.2837,-0.03 -0.5393,0.072 -0.7605,0.3039 -0.2254,0.2359 -0.3622,0.5817 -0.4065,1.0415 z" id="path31"></path> <path class="fill_schwarz" d="m 130.64,62.1136 -1.348,-0.1879 0.8712,-6.1572 1.2495,0.174 -0.1247,0.8755 c 0.2716,-0.3798 0.5029,-0.6257 0.69,-0.7356 0.1892,-0.11 0.3944,-0.1479 0.6158,-0.118 0.3079,0.044 0.5855,0.188 0.837,0.4318 l -0.6197,1.3614 c -0.1972,-0.2079 -0.3944,-0.3278 -0.5936,-0.3558 -0.1871,-0.0261 -0.3602,0.0199 -0.5231,0.1379 -0.161,0.118 -0.2978,0.3518 -0.4105,0.7016 -0.1147,0.3519 -0.2375,1.0076 -0.3743,1.9712 z" id="path32"></path> <path class="fill_schwarz" d="m 136.328,60.9341 1.2898,0.4818 c -0.2778,0.5878 -0.6279,1.0036 -1.0524,1.2414 -0.4226,0.2399 -0.9054,0.3179 -1.4447,0.234 -0.7484,-0.118 -1.2877,-0.4578 -1.6156,-1.0196 -0.3883,-0.6537 -0.501,-1.5013 -0.3339,-2.5428 0.1629,-1.0255 0.5371,-1.8092 1.1206,-2.3489 0.493,-0.4558 1.0664,-0.6337 1.7183,-0.5298 0.7264,0.114 1.2516,0.4698 1.5795,1.0655 0.3762,0.6837 0.4688,1.6193 0.2796,2.8067 l -0.0362,0.184 -3.3581,-0.5278 c -0.0685,0.4878 -0.0202,0.8796 0.1488,1.1795 0.1691,0.2998 0.4044,0.4717 0.7023,0.5197 0.4305,0.068 0.7646,-0.18 1.002,-0.7437 z m 0.338,-1.6312 c 0.0643,-0.4797 0.0181,-0.8556 -0.1368,-1.1275 -0.157,-0.2698 -0.3682,-0.4278 -0.6358,-0.4698 -0.2837,-0.0439 -0.5413,0.044 -0.7747,0.264 -0.2394,0.2238 -0.3923,0.5617 -0.4607,1.0175 z" id="path33"></path> <path class="fill_schwarz" d="m 139.813,56.3243 0.2676,-1.4993 1.34,0.2358 -0.2655,1.4994 z m -1.2334,6.9547 1.0865,-6.1251 1.3401,0.2359 -1.0865,6.1232 z" id="path34"></path> <path class="fill_schwarz" d="m 145.791,64.6544 -1.336,-0.2579 0.6096,-3.1145 c 0.1227,-0.6257 0.1791,-1.0455 0.169,-1.2634 -0.0101,-0.2159 -0.0724,-0.3938 -0.1871,-0.5297 -0.1147,-0.138 -0.2596,-0.2239 -0.4326,-0.258 -0.2254,-0.042 -0.4407,-0.0099 -0.6499,0.098 -0.2093,0.11 -0.3763,0.2839 -0.499,0.5218 -0.1227,0.2399 -0.2535,0.7096 -0.3903,1.4113 l -0.5412,2.7647 -1.3361,-0.2579 1.1952,-6.1051 1.2373,0.2379 -0.1749,0.8976 c 0.2877,-0.3019 0.5855,-0.5138 0.8954,-0.6318 0.3098,-0.1198 0.6317,-0.1478 0.9677,-0.0819 0.3883,0.074 0.6981,0.2379 0.9276,0.4918 0.2274,0.2538 0.3622,0.5477 0.4023,0.8836 0.0404,0.3358 0.002,0.8016 -0.1146,1.3993 z" id="path35"></path> <path class="fill_schwarz" d="m 153.252,64.2806 1.2414,0.5917 c -0.3259,0.5617 -0.7122,0.9435 -1.1549,1.1475 -0.4446,0.2019 -0.9315,0.2359 -1.4607,0.1059 -0.7364,-0.1838 -1.2435,-0.5677 -1.5212,-1.1554 -0.3299,-0.6857 -0.3661,-1.5394 -0.1086,-2.5629 0.2516,-1.0074 0.6922,-1.7551 1.322,-2.243 0.5311,-0.4117 1.1187,-0.5376 1.7584,-0.3798 0.7144,0.178 1.2073,0.5778 1.479,1.1995 0.3159,0.7137 0.326,1.6553 0.0341,2.8207 l -0.0523,0.1799 -3.2997,-0.8176 c -0.1127,0.4798 -0.0966,0.8756 0.0462,1.1894 0.1409,0.3119 0.3603,0.5058 0.6519,0.5778 0.4247,0.1059 0.7787,-0.114 1.0644,-0.6537 z m 0.4789,-1.5953 c 0.1067,-0.4717 0.0946,-0.8515 -0.0362,-1.1354 -0.1328,-0.2839 -0.3301,-0.4578 -0.5915,-0.5238 -0.2797,-0.068 -0.5454,-0.004 -0.7968,0.1959 -0.2575,0.2019 -0.4407,0.5258 -0.5493,0.9736 z" id="path36"></path> <polygon class="fill_schwarz" points="155.569,65.2282 156.885,65.578 156.457,67.1672 155.141,66.8174 " id="polygon36"></polygon> <polygon class="fill_schwarz" points="161.058,66.1896 164.584,60.6183 166.038,61.06 161.089,68.5326 159.624,68.0868 159.732,59.143 161.213,59.5948 " id="polygon37"></polygon> <polygon class="fill_schwarz" points="163.847,67.687 165.143,68.1048 164.63,69.6701 163.336,69.2503 " id="polygon38"></polygon> <polygon class="fill_schwarz" points="63.7412,69.3932 68.9008,68.5776 69.1267,70.011 65.3684,70.6066 65.6663,72.4858 69.1587,71.934 69.3846,73.3614 65.8922,73.9151 66.258,76.222 70.1442,75.6063 70.3701,77.0356 65.0846,77.8733 " id="polygon39"></polygon> <path class="fill_schwarz" d="m 71.6536,68.1178 0.4377,3.1265 c 0.1699,-0.3398 0.3718,-0.6037 0.6077,-0.7916 0.2359,-0.1899 0.5038,-0.3058 0.8056,-0.3478 0.4018,-0.056 0.7537,0.002 1.0535,0.1779 0.3019,0.174 0.5358,0.4478 0.7078,0.8216 0.1259,0.2758 0.2358,0.7557 0.3338,1.4434 l 0.5077,3.6143 -1.3353,0.1878 -0.4559,-3.2544 c -0.1059,-0.7537 -0.2219,-1.2195 -0.3437,-1.3934 -0.172,-0.2379 -0.4199,-0.3318 -0.7457,-0.2858 -0.3439,0.0479 -0.5918,0.2238 -0.7436,0.5257 -0.152,0.3039 -0.176,0.8356 -0.0701,1.5933 l 0.4338,3.0845 -1.3394,0.1879 -1.1953,-8.5019 z" id="path39"></path> <path class="fill_schwarz" d="m 76.7871,69.0873 -0.158,-1.5133 1.3455,-0.1419 0.1579,1.5133 z m 0.7396,7.0247 -0.6517,-6.185 1.3455,-0.142 0.6517,6.1851 z" id="path40"></path> <path class="fill_schwarz" d="m 84.8813,75.3604 -1.3474,0.118 -0.2759,-3.1625 c -0.0559,-0.6338 -0.1178,-1.0536 -0.1878,-1.2594 -0.068,-0.204 -0.176,-0.3579 -0.3239,-0.4579 -0.1479,-0.102 -0.3099,-0.1439 -0.4858,-0.1279 -0.2239,0.018 -0.4218,0.11 -0.5917,0.2719 -0.1719,0.1619 -0.2818,0.3738 -0.3338,0.6377 -0.05,0.2619 -0.0461,0.7496 0.0179,1.4613 l 0.244,2.8066 -1.3474,0.118 -0.5418,-6.195 1.2495,-0.1101 0.078,0.9096 c 0.1918,-0.3678 0.4177,-0.6537 0.6816,-0.8515 0.2619,-0.1999 0.5637,-0.3139 0.9016,-0.3439 0.3918,-0.034 0.7336,0.038 1.0215,0.2179 0.2878,0.1819 0.4977,0.4278 0.6277,0.7397 0.1319,0.3119 0.2239,0.7716 0.2778,1.3773 z" id="path41"></path> <path class="fill_schwarz" d="m 86.0447,75.7262 1.5573,0.1459 c 0.0339,0.226 0.1139,0.3819 0.2379,0.4718 0.124,0.09 0.3138,0.128 0.5717,0.114 0.2959,-0.016 0.5338,-0.078 0.7117,-0.1839 0.1259,-0.078 0.2179,-0.1999 0.2798,-0.3679 0.062,-0.1659 0.082,-0.4577 0.06,-0.8695 l -0.048,-0.9076 c -0.1838,0.3458 -0.3998,0.6097 -0.6436,0.7916 -0.2459,0.1799 -0.5218,0.2779 -0.8297,0.2958 -0.5657,0.0281 -1.0535,-0.2019 -1.4673,-0.6916 -0.4737,-0.5618 -0.7376,-1.3414 -0.7896,-2.3389 -0.056,-1.0615 0.1119,-1.8731 0.5018,-2.4349 0.3918,-0.5618 0.8835,-0.8576 1.4813,-0.8895 0.3158,-0.0161 0.6077,0.0519 0.8755,0.2058 0.2679,0.1539 0.5118,0.3959 0.7337,0.7237 l -0.046,-0.8696 1.2634,-0.068 0.2919,5.5734 c 0.046,0.8936 -0.002,1.5453 -0.1439,1.9551 -0.1439,0.4098 -0.3798,0.7257 -0.7097,0.9495 -0.3318,0.222 -0.7976,0.3499 -1.4033,0.3799 -0.5578,0.0299 -1.0075,-0.02 -1.3494,-0.152 -0.3439,-0.1299 -0.6117,-0.3377 -0.8036,-0.6237 -0.194,-0.2838 -0.2999,-0.6196 -0.3199,-1.0055 z m 1.0135,-3.7063 c 0.036,0.6617 0.168,1.1395 0.3959,1.4334 0.2279,0.2918 0.4917,0.4318 0.7936,0.4158 0.3218,-0.018 0.5917,-0.1859 0.8057,-0.5058 0.2138,-0.3198 0.3037,-0.7937 0.2717,-1.4213 -0.0339,-0.6477 -0.1699,-1.1215 -0.4057,-1.4193 -0.2379,-0.2979 -0.5178,-0.4378 -0.8416,-0.4219 -0.3199,0.0161 -0.5778,0.182 -0.7736,0.4978 -0.196,0.3159 -0.278,0.7896 -0.246,1.4213 z" id="path42"></path> <path class="fill_schwarz" d="m 95.0485,72.8816 1.3494,0.2279 c -0.1579,0.6297 -0.4198,1.1034 -0.7876,1.4193 -0.3679,0.3139 -0.8236,0.4818 -1.3654,0.5017 -0.7536,0.026 -1.3434,-0.2058 -1.7712,-0.6956 C 91.97,73.7672 91.7,72.9576 91.6621,71.9041 c -0.036,-1.0376 0.1799,-1.8772 0.6457,-2.5189 0.3938,-0.5418 0.9196,-0.8236 1.5753,-0.8456 0.7296,-0.026 1.3114,0.2239 1.7431,0.7476 0.4978,0.5998 0.7677,1.4993 0.8097,2.7008 l -1e-4,0.1879 -3.3764,0.1179 c 0.0241,0.4918 0.148,0.8676 0.3698,1.1295 0.222,0.2619 0.4839,0.3879 0.7837,0.3779 0.4338,-0.016 0.7117,-0.3219 0.8356,-0.9196 z m 0.018,-1.6653 c -0.028,-0.4837 -0.1439,-0.8436 -0.3478,-1.0815 -0.2039,-0.2358 -0.4398,-0.3497 -0.7097,-0.3398 -0.2839,0.01 -0.5197,0.144 -0.7057,0.4038 -0.1899,0.2659 -0.2758,0.6278 -0.2559,1.0875 z" id="path43"></path> <path class="fill_schwarz" d="m 102.271,74.7467 h -1.3534 v -3.1745 c 0,-0.6357 -0.026,-1.0595 -0.0759,-1.2714 -0.05,-0.2099 -0.146,-0.3719 -0.2839,-0.4858 -0.1379,-0.1119 -0.2959,-0.1699 -0.4718,-0.1699 -0.2259,0 -0.4318,0.0739 -0.6157,0.2199 -0.1819,0.1459 -0.3118,0.3478 -0.3858,0.6057 -0.074,0.2579 -0.112,0.7436 -0.112,1.4593 v 2.8167 h -1.3513 v -6.2191 h 1.2534 v 0.9136 c 0.2219,-0.3519 0.4718,-0.6157 0.7516,-0.7917 0.2799,-0.1759 0.5878,-0.2638 0.9276,-0.2638 0.3958,0 0.7277,0.1039 0.9995,0.3078 0.2719,0.2059 0.4578,0.4698 0.5618,0.7917 0.1039,0.3218 0.1559,0.7876 0.1559,1.3953 z" id="path44"></path> <polygon class="fill_schwarz" points="104.666,66.0148 105.68,66.0148 103.916,74.8926 102.921,74.8926 " id="polygon44"></polygon> <path class="fill_schwarz" d="m 106.675,66.0727 2.5928,0.09 c 0.6557,0.0239 1.1475,0.1139 1.4753,0.2718 0.3279,0.158 0.6278,0.4158 0.8956,0.7717 0.2699,0.3578 0.4738,0.8156 0.6137,1.3753 0.1419,0.5597 0.1979,1.2514 0.168,2.0751 -0.0261,0.7396 -0.132,1.3813 -0.3179,1.925 -0.1879,0.5418 -0.4158,0.9676 -0.6837,1.2795 -0.2699,0.3098 -0.5877,0.5397 -0.9595,0.6897 -0.3699,0.1499 -0.8416,0.2138 -1.4154,0.1938 l -2.6687,-0.0939 z m 1.3654,1.5013 -0.1979,5.6814 1.0655,0.0379 c 0.4557,0.016 0.7876,-0.0159 0.9955,-0.0939 0.2079,-0.08 0.3798,-0.2039 0.5178,-0.3719 0.1359,-0.1699 0.2539,-0.4398 0.3518,-0.8116 0.1,-0.3718 0.16,-0.8636 0.1819,-1.4753 0.022,-0.6357 -0.004,-1.1395 -0.08,-1.5093 -0.0739,-0.3698 -0.2018,-0.6637 -0.3798,-0.8796 -0.1779,-0.2179 -0.3977,-0.3638 -0.6616,-0.4398 -0.1959,-0.058 -0.5797,-0.0959 -1.1495,-0.1159 z" id="path45"></path> <path class="fill_schwarz" d="m 113.326,71.814 c 0.0321,-0.6076 0.1819,-1.1554 0.4498,-1.6412 0.2679,-0.4877 0.6018,-0.8435 1.0056,-1.0734 0.4038,-0.23 0.8476,-0.3319 1.3353,-0.3059 0.8196,0.044 1.4454,0.3978 1.8791,1.0635 0.4339,0.6657 0.6298,1.4274 0.5837,2.2849 -0.0339,0.6397 -0.1858,1.2095 -0.4557,1.7132 -0.2699,0.5018 -0.6097,0.8716 -1.0195,1.1095 -0.4098,0.2379 -0.8497,0.3458 -1.3215,0.3199 -0.7575,-0.038 -1.3693,-0.3599 -1.839,-0.9636 -0.4678,-0.6037 -0.6737,-1.4393 -0.6178,-2.5069 z m 1.3754,0.16 c -0.034,0.6277 0.0639,1.1095 0.2939,1.4433 0.2278,0.3339 0.5157,0.5118 0.8635,0.5298 0.3379,0.0179 0.6377,-0.13 0.8957,-0.4398 0.2599,-0.3118 0.4058,-0.7816 0.4378,-1.4133 0.0319,-0.6178 -0.066,-1.0936 -0.2939,-1.4294 -0.2279,-0.3359 -0.5138,-0.5138 -0.8576,-0.5318 -0.3399,-0.0179 -0.6398,0.128 -0.8996,0.4398 -0.2599,0.3099 -0.4078,0.7777 -0.4398,1.4014 z" id="path46"></path> <path class="fill_schwarz" d="m 124.101,75.8122 -1.3474,-0.118 0.2759,-3.1604 c 0.0559,-0.6358 0.068,-1.0595 0.0359,-1.2735 -0.0319,-0.2139 -0.1118,-0.3838 -0.2398,-0.5098 -0.1299,-0.1239 -0.2799,-0.1938 -0.4558,-0.2098 -0.2259,-0.0201 -0.4358,0.0359 -0.6316,0.1659 -0.196,0.1299 -0.3419,0.3198 -0.4379,0.5697 -0.0959,0.2499 -0.1759,0.7316 -0.2379,1.4433 l -0.2458,2.8048 -1.3474,-0.118 0.5417,-6.1952 1.2495,0.11 -0.08,0.9096 c 0.2518,-0.3299 0.5258,-0.5697 0.8176,-0.7217 0.2939,-0.1499 0.6097,-0.2099 0.9476,-0.1819 0.3937,0.036 0.7156,0.1659 0.9695,0.3938 0.2518,0.228 0.4158,0.5078 0.4898,0.8376 0.0759,0.3299 0.0859,0.7976 0.0339,1.4034 z" id="path47"></path> <path class="fill_schwarz" d="m 126.944,71.7061 -1.1894,-0.3958 c 0.2118,-0.6077 0.5037,-1.0335 0.8715,-1.2714 0.3699,-0.2379 0.8716,-0.3218 1.5093,-0.2559 0.5658,0.06 0.9915,0.184 1.2734,0.3759 0.2819,0.1899 0.4738,0.4298 0.5717,0.7157 0.1,0.2878 0.112,0.7915 0.0361,1.5152 l -0.212,1.9091 c -0.0579,0.5358 -0.0779,0.9376 -0.0619,1.2034 0.014,0.266 0.064,0.5538 0.1499,0.8616 l -1.3274,-0.1399 -0.1039,-0.6936 c -0.2579,0.2459 -0.5238,0.4257 -0.8016,0.5337 -0.2759,0.1079 -0.5618,0.146 -0.8556,0.1159 -0.4938,-0.0519 -0.8797,-0.2599 -1.1595,-0.6256 -0.2799,-0.3659 -0.3918,-0.8237 -0.3338,-1.3755 0.0379,-0.3478 0.1339,-0.6476 0.2899,-0.8936 0.1538,-0.2458 0.3578,-0.4357 0.6056,-0.5657 0.25,-0.1318 0.6377,-0.2298 1.1615,-0.2958 0.6376,-0.0799 1.0835,-0.1679 1.3413,-0.2659 0.0361,-0.3418 0.0361,-0.5678 -0.002,-0.6796 -0.036,-0.112 -0.1179,-0.21 -0.2399,-0.2919 -0.124,-0.08 -0.3039,-0.134 -0.5398,-0.1599 -0.2399,-0.024 -0.4358,0.0099 -0.5857,0.1039 -0.1479,0.094 -0.2819,0.2858 -0.3978,0.5757 z m 1.6532,1.5173 c -0.1779,0.052 -0.4518,0.106 -0.8236,0.1619 -0.4258,0.064 -0.7117,0.156 -0.8536,0.2739 -0.1419,0.1199 -0.2239,0.2838 -0.2459,0.4938 -0.0239,0.2359 0.026,0.4417 0.1499,0.6177 0.126,0.1759 0.2939,0.2759 0.5078,0.2979 0.1899,0.0199 0.3859,-0.024 0.5858,-0.136 0.1999,-0.11 0.3458,-0.2499 0.4357,-0.4218 0.09,-0.1699 0.1599,-0.4918 0.2099,-0.9615 z" id="path48"></path> <path class="fill_schwarz" d="m 134.152,77.1115 0.1299,-0.9235 c -0.2319,0.3078 -0.5118,0.5337 -0.8396,0.6777 -0.3279,0.1459 -0.6558,0.1939 -0.9856,0.1478 -0.3318,-0.0459 -0.6177,-0.1738 -0.8556,-0.3857 -0.2378,-0.2099 -0.3998,-0.4858 -0.4837,-0.8257 -0.086,-0.3378 -0.084,-0.8136 0.002,-1.4233 l 0.5477,-3.8981 1.3393,0.1878 -0.3977,2.8307 c -0.114,0.8077 -0.166,1.3234 -0.156,1.5473 0.01,0.2259 0.076,0.4058 0.1979,0.5458 0.122,0.1399 0.2819,0.2238 0.4798,0.2518 0.2239,0.03 0.4418,-0.018 0.6537,-0.1479 0.2119,-0.1299 0.3638,-0.3139 0.4578,-0.5517 0.096,-0.2359 0.2019,-0.7717 0.3178,-1.6073 l 0.3658,-2.5988 1.3335,0.1879 -0.8657,6.1592 z" id="path49"></path> </g> </svg> 