<svg xml:space="preserve" width="210mm" height="297mm" style="shape-rendering:geometricPrecision;text-rendering:geometricPrecision;image-rendering:optimizeQuality;fill-rule:evenodd;clip-rule:evenodd" viewBox="0 0 210 297" version="1.1" id="svg49" xmlns="http://www.w3.org/2000/svg">
    <defs id="defs1">
        <linearGradient id="Gradient1">
            <stop style="stop-opacity:1;stop-color:#bd8d37" offset="0%" id="stop0"/>
            <stop style="stop-opacity:1;stop-color:#fdf080" offset="50%" id="stop1"/>
            <stop style="stop-opacity:1;stop-color:#bd8d37" offset="100%" id="stop2"/>
        </linearGradient>
        <style type="text/css" id="style1">
            .flossen,.haut,.kiemen,.maul,.rahmen_innen,.schwanz{stroke:#000;stroke-width:1}.fil0{fill:none}.fill_schwarz{fill:#000;fill-rule:nonzero}.filrot,.filweiss{fill:#fff;fill-rule:nonzero;stroke:none}.filrot{fill:red}
        </style>
    </defs>
    <g id="Ebene_x0020_1">
        <path id="polygon1" style="fill:url(#Gradient1)" d="M25 160V90l-1-17-2-10-3.8-13.5.8-.3 2-.9 2-.85 2-.85 2-.8 2-.77 2-.73 2-.72 2-.73 2-.65 2-.7 2-.6 2-.6 2-.6 2-.55 2-.53 2-.52 2-.5 2-.45 2-.45 2-.45 2-.4 2-.4 2-.35 2-.35 2-.32 2-.31 2-.27 2-.28 2-.25 2-.2 2-.22 2-.18 2-.15 2-.16 2-.11 2-.1 2-.05 2-.05 2-.05 2-.05h2l2 .05 2 .05 2 .05 2 .05 2 .1 2 .11 2 .16 2 .15 2 .18 2 .22 2 .2 2 .25 2 .28 2 .27 2 .31 2 .32 2 .35 2 .35 2 .4 2 .4 2 .45 2 .45 2 .45 2 .5 2 .52 2 .53 2 .55 2 .6 2 .6 2 .6 2 .7 2 .65 2 .73 2 .72 2 .73 2 .77 2 .8 2 .85 2 .85 2 .9 1 .3-4 13.5-2 10-1 17v70l-.05 1-.03 1-.04 1-.04 1-.06 1-.1 1-.07 1-.1 1-.11 1-.15 1-.13 1-.17 1-.17 1-.18 1-.22 1-.2 1-.24 1-.23 1-.27 1-.29 1-.28 1-.29 1-.34 1-.34 1-.34 1-.38 1-.39 1-.4 1-.41 1-.46 1-.44 1-.48 1-.5 1-.51 1-.52 1-.55 1-.57 1-.6 1-.6 1-.65 1-.66 1-.66 1-.7 1-.74 1-.75 1-.69 1-.89 1-.86 1-.8 1-.9 1-1.45 1.54-1 1.03-1 .94-1 .97-1 .92-1 .87-1 .88-1 .8-1 .81-1 .74-1 .73-1 .72-1 .7-1 .67-1 .63-1 .63-1 .59-1 .59-1 .55-1 .56-1 .51-1 .49-1 .49-1 .46-1 .43-1 .45-1 .4-1 .4-1 .36-1 .38-1 .34-1 .33-1 .33-1 .28-1 .28-1 .29-1 .24-1 .23-1 .24-1 .2-1 .18-1 .21-1 .16-1 .15-1 .15-1 .11-1 .14-1 .07-1 .11-1 .05-1 .05-1 .04-1 .05-1 .03h-2l-1-.025-1-.055-1-.04-1-.05-1-.05-1-.11-1-.07-1-.14-1-.11-1-.15-1-.15-1-.16-1-.21-1-.18-1-.2-1-.24-1-.23-1-.24-1-.29-1-.28-1-.28-1-.33-1-.33-1-.34-1-.38-1-.361-1-.399-1-.4-1-.445-1-.435-1-.46-1-.49-1-.49-1-.51-1-.56-1-.545-1-.595-1-.59-1-.63-1-.63-1-.67-1-.7-1-.72-1-.73-1-.74-1-.81-1-.8-1-.88-1-.87-1-.92-1-.97-1-.94-1-1.03-1.45-1.54-.9-1-.8-1-.86-1-2.33-3-.74-1-.7-1-.66-1-.66-1-.65-1-.6-1-.6-1-.57-1-.55-1-.52-1-.51-1-.5-1-.48-1-.44-1-.46-1-.41-1-.4-1-.39-1-.38-1-.34-1-.34-1-.34-1-.29-1-.28-1-.29-1-.27-1-.23-1-.24-1-.2-1-.22-1-.18-1-.17-1-.17-1-.13-1-.15-1-.11-1-.1-1-.07-1-.1-1-.06-1-.04-1-.04-1-.03-1-.05-1z"/>
        <path class="filweiss" id="polygon2" d="m30 54.6 3-1.1 3-1 3-1 3-.85 3-.85 3-.8 3-1 3-.5 4-1 3-.6 3-.6 3-.6 3-.3 5-.9 5-.5 5-.5 5-.2 5-.15 3-.15h4l3 .15 5 .15 5 .2 5 .5 5 .5 5 .9 3 .3 3 .6 3 .6 3 .6 4 1 3 .5 3 1 3 .8 3 .85 3 .85 3 1 3 1 3 1.1v.4l-.8 3-.8 3-.7 3-.5 3-.6 3-.4 3-.4 3-.4 3-.2 3-.1 3-.1 2v3.9l-3-1.1-3-.9-3-.9-3-.8-3-.8-3-.8-3-.8-3-.6-3-.6-3-.6-3-.5-3-.4-3-.4-3-.4-3-.3-3-.3-3-.2-3-.2-3-.1-3-.1-3-.1h-4l-3 .1-3 .1-3 .1-3 .2-3 .2-3 .3-3 .3-3 .4-3 .4-3 .4-3 .5-3 .6-3 .6-3 .6-3 .8-3 .8-3 .8-3 .8-3 .9-3 .9-3 1.1V87l-.1-2-.1-3-.2-3-.4-3-.4-3-.4-3-.6-3-.5-3-.7-3-.8-3-.8-3z"/>
        <path class="filrot" id="polygon3" d="m165 100.9-3-1-3-.95-3-.91-3-.87-3-.79-3-.75-3-.7-3-.64-3-.61-3-.57-3-.5-3-.46-3-.44-3-.35-3-.33-3-.3-3-.24-3-.17-3-.17-3-.07-1.5-.08v134.35l1.5-.05 3-.3 3-.44 3-.58 3-.73 3-.9 3-1.05 3-1.25 3-1.45 3-1.54 3-1.81 3-2 3-2.35 3-2.57 3-3.03 3-3.3 3-3.9 3-4.6 3-5.8 1.5-3.4 1.5-4.3 1-3.65 1-4.35.5-3.5.3-3 .1-4 .1-10.5z"/>
        <path class="filweiss" id="polygon4" d="M96.5 90.05v20.53L77.805 91.244 79 91.12l2-.17 2-.2 2-.15 2-.15 2-.08 2-.12 2-.08 2-.12z"/>
        <path class="filrot" id="polygon5" d="M96.5 116.401v24.179L53.018 95.607 54 95.4l2-.47 2-.43 2-.42 2-.41 2-.39 2-.38 2-.33 2-.32 2-.29.8-.11z"/>
        <path class="filweiss" id="polygon6" d="M48.361 96.79 96.5 146.58v24L35 106.972v-6.022l3-1.05 3-.94 3-.91 3-.88z"/>
        <path class="filrot" id="polygon7" d="M35 136.971v-23.999L96.5 176.5v24.08L35 136.971v-23.999z"/>
        <path class="filweiss" id="polygon8" d="m35 142.971 61.5 63.609v17.82l-1.5-.12-4-.43-1.2-.21-54.2-56.04-.16-1.6-.19-1.5-.1-1.5-.06-.5L35 160z"/>
        <path class="filrot" id="polygon9" d="M36.83 174.864 38 179l2 5.5 2 4.3 2 3.65 2 3.2 2 2.85 2 2.5 2 2.3 2 2.1 2 1.95 2 1.75 2 1.65 2 1.5 2 1.37 2 1.27 2 1.16 2 1.1 2 1 2 .9 2 .83 2 .77 2 .68 2.513.784z"/>
        <path id="polygon10" class="filweiss" d="m156.067 172-.158 2-.1 2-.317 1.942L154.9 180l-.3 2-.45 2-.55 2-.6 2-.85 2-.9 2-1.1 2-1.25 2-.9 1.2-1 1.3-1 1.2-1 1-1 1-1 .8-1 .75-1 .65-1 .56-1 .51-1 .48-1 .4-1 .45-1 .35-1 .35-1 .35-1 .3-1 .3-1 .3-1 .25-1 .35-1 .25-1 .3-1 .3-1 .3-1 .35-1 .3-1 .35-1 .4-1 .4-1 .45-1 .45-1 .55-1 .6-1 .65-.71.698-.594.598-.796-.796-.1-.5v-.5l.154-.835-.498-1.082L111.2 211l.033-1.175.35-1.175.325-.592.492-.558V205l.1-1 .3-1 .358-1.117.658-.941.984-.942.9-.8.965-.397-.915-.803-1.15-1-.9-1-.6-1-.35-1-.25-1-.1-1v-1l.1-1 .15-1 .35-1.5.5-1.6.5-1.4 1-2.5.5.7.5 1.7 1 2.6 1 2 1 1.7 1 1.3 1 1.1 1 .9 1 .7 1 .6 1 .45 1 .3 1 .18 1 .12 1 .05 1-.05 1-.12 1-.18 1-.25 2-.7 1-.4 1-.5 1-.5 1-.6 1.7-1.1 2.2-1.6.2-2.4.1-1 .167-1.516-8.717-9.134 4.425-11.89-.942-1.993L137.02 160l-.91-2-.892-1.825-1.078-2.117-1.159-1.766-1.141-2.058-1.083-1.942-1.222-1.883-1.362-2.059-1.595-2.175-1.53-1.883-1.425-2-1.591-2.058-1.683-2.059-1.608-1.825-1.7-2.058-1.617-2L114.1 126l-1.235-2.124-1.026-1.959-.92-2.04-.813-1.918-.642-2.042-.534-1.917-.23-2-.05-2 .05-2 .18-2 .27-2 .45-2 .233-1.175.45-1.059.417-.792.391-.416.467-.116.434-.084.417.134.891.132 1.9.376 1.6.5 1.5.5 2.3 1 1.859 1.124 1.791 1.02 1.52 1.042 1.289.98 1.341 1 1.117 1.061 1.121 1 1.938 1.938 1.86 1.959L136.2 114l1.55 2 1.4 2 1.35 2 1.25 2 1.2 2 1.1 2 1.342 1.825 1 1.941 1.117 1.884 1.086 1.953.9 1.934.774 1.67 1.125 2.264.684 2 .816 2.198.571 2.331.7 1.868.426 2.066.399 2.066.31 2 .13 1 .313 2.781 4.992 6.064-4.625 6.988z"/>
        <path class="fil0" d="M25 159.5V89.921c0-13.762-2.253-27.372-6.761-40.444C44.09 37.813 71.627 32 99.999 32c28.252 0 55.976 5.903 81.728 17.488-4.362 12.6-6.727 26.518-6.727 40.433V159.5c0 41.414-33.586 75-75 75s-75-33.586-75-75" id="rahmen_aussen" style="stroke:#000;stroke-width:1"/>
        <path class="fil0 rahmen_innen" d="M100 42c-24.15 0-47.52 4.194-70.112 12.713C33.164 66.033 35 78.203 35 90l-.007.86C56.009 83.59 77.732 80 99.999 80c22.27 0 43.974 3.586 65 10.865L165 90c-.05-11.796 1.828-23.963 5.114-35.298C147.53 46.168 124.149 42 99.999 42" id="rahmen_schrift"/>
        <path class="fil0 rahmen_innen" d="m103.5 100 .003-10.09c21.295.315 41.393 4.01 61.504 10.979L165 159.5c0 34.79-26.736 63.41-61.493 64.913L103.5 100" id="rahmen_fisch"/>
        <path class="fil0 rahmen_innen" d="M96.5 93.283v17.297l-17.983-18.6-.707-.735c6.695-.756 11.965-1.127 18.685-1.222l.005 3.26" id="rahmen_links1"/>
        <path class="fil0 rahmen_innen" d="M74.76 118.094 53.011 95.6c6.733-1.643 13.316-2.866 19.803-3.794L96.5 116.401v24.179l-21.74-22.486" id="rahmen_links2"/>
        <path class="fil0 rahmen_innen" d="M35 103.811v3.161l61.5 63.608v-24L48.365 96.793a179.956 179.956 0 0 0-13.367 4.055l.002 2.963" id="rahmen_links3"/>
        <path class="fil0 rahmen_innen" d="M35 136.971v-23.999L96.5 176.5v24.08l-30.75-31.804L35 136.97" id="rahmen_links4"/>
        <path class="fil0 rahmen_innen" d="m62.67 195.59 27.13 28.092c2.597.425 4.059.6 6.697.71l.003-17.812L35 142.971l.008 14.848c0 .365-.008.762-.008 1.134 0 3.024.155 5.63.575 8.62L62.67 195.59" id="rahmen_links5"/>
        <path class="fil0 rahmen_innen" d="m59.672 198.489 22.835 23.625c-11.435-3.276-21.747-9.557-29.761-18.049-7.63-8.083-13.168-18.181-15.91-29.18l22.836 23.604" id="rahmen_links6"/>
        <path class="fil0" d="M143.039 190.233c1.952-21.481-11.213-43.357-25.044-58.61-3.223-4.273-5.563-8.178-7.097-11.771-1.534-3.594-2.263-6.878-2.263-9.909 0-3.213.665-10.628 2.92-11.608 2.93.49 5.614.96 8.374 2.45 2.76 1.488 5.833 3.177 8.372 5.405 5.08 4.456 9.04 9.015 11.798 13.306 7.52 11.703 12.686 20.238 14.83 32.274 3.2 16.611 1.418 37.649-10.351 49.419-7.38 7.38-26.082 8.149-31.93 14.674-3.16-3.973 4.007-6.963 6.624-8.402 3.545-1.949 4.839-1.894 8.356-2.935 2.402-.711 2.364-.588 2.35-1.08-1.425-.04-1.986-.064-3.253-.173-4.342-.375-9.647-3.785-12.395-6.533-3.702-3.702-1.228-10.627.67-14.74.263.27.619 1.188 1.005 2.345 6.636 19.887 22.737 11.635 33.165.167" id="path10" style="stroke:#000;stroke-width:1"/>
        <path class="fil0 maul" d="M111.335 98.6c.946 2.82 1.676 4.353 2.652 7.566 1.089 3.587 2.108 8.015 2.088 11.272l-.041 6.571" id="path6"/>
        <path class="fil0 maul" d="M111.315 98.46c4.51 3.577 6.914 6.625 8.585 11.124.352.95.781 2.91.262 6.592-.173 1.224-.675 3.672-2.092 5.559-.69.919-2.15 2.6-4.097 3.888" id="path7"/>
        <path class="fil0 schwanz" d="M130.01 201.027c-5.363.206-13.461-4.115-14.734-10.707-.505-2.613-.454-5.656-.276-8.246" id="path8"/>
        <path class="fil0 schwanz" id="line9" d="M130.089 208.22 130 196.317"/>
        <path class="fil0 schwanz" d="M122.384 202.277c-7.167 2.939-13.275 5.021-10.475 10.871" id="path11"/>
        <path class="fil0 schwanz" d="M116.647 198.804c-1.654.993-2.333 1.136-3.392 3.067-.757 1.38-.833 3.986-.833 5.622" id="path12"/>
        <path class="fil0 haut" id="polyline12" d="m135.61 128.927 5.025 3.518v-4.858"/>
        <path class="fil0 haut" id="polyline13" d="m135.653 134.262-.083 10.038 5.275 4.87 5.192-5.193"/>
        <path class="fil0 haut" id="polyline14" d="m146.493 150.045 2.975 3.489 1.121-4.446"/>
        <path class="fil0 haut" id="polyline15" d="m140 157 2.178 2.094 2.177-4.188"/>
        <path class="fil0 haut" id="polyline16" d="m147.985 158.158 2.298 4.453 2.299-4.453"/>
        <path class="fil0 haut" id="polyline17" d="m144.909 167.336 3.788 3.254.458-4.972"/>
        <path class="fil0 flossen" id="polyline18" d="m155.841 158.07 4.894 5.675-4.535 6.916"/>
        <circle class="fil0" cx="126.021" cy="111.566" r="2.01" id="circle18" style="stroke:#000;stroke-width:1"/>
        <path class="fil0 kiemen" d="M120.213 127.886c3.573-.32 4.787-.956 7.035-2.08 2.192-1.094 5.197-2.607 6.533-5.29.271-.545.532-1.016.557-2.265" id="path18"/>
        <path class="fil0 kiemen" d="M126.65 118.843c1.479-.422 1.441-.398 2.655-1.251 1.102-.774 1.371-1.227 1.868-1.931.394-.558.657-.896 1.005-1.985" id="path19"/>
        <path class="fil0 flossen" id="polyline19" d="m138.986 164.448-.946 2.66-3.437 9.273 8.639 9.059"/>
        <path class="fil0" d="M165.168 107.925h-2.32c-11.231 0-20.622 6.159-14.907 17.587 4.029 8.043 12.06.336 12.06-6.7 0-16.812-32.466-15.437-42.88-14.075" id="path20" style="stroke:#000;stroke-width:1"/>
        <path class="fill_schwarz" d="m36.982 60.854 2.712-.824c.74-.225 1.28-.315 1.622-.271.342.042.67.202.98.48.311.275.533.63.665 1.059.121.396.143.78.065 1.151-.079.374-.236.68-.469.918.445.02.835.168 1.167.442.334.274.576.657.728 1.151.183.596.194 1.146.033 1.645-.163.502-.427.86-.791 1.076-.254.152-.881.378-1.881.682l-2.304.701-2.527-8.21zm1.784.952.584 1.899.903-.274c.541-.166.871-.276.994-.334a.893.893 0 0 0 .457-.46c.082-.198.082-.433-.002-.705-.074-.244-.19-.424-.342-.544a.714.714 0 0 0-.477-.164c-.163.01-.606.124-1.328.342l-.789.24zm1.004 3.264.676 2.195 1.268-.384c.557-.17.905-.308 1.044-.412a.833.833 0 0 0 .294-.463c.054-.202.042-.434-.038-.696-.085-.268-.21-.472-.377-.612a.921.921 0 0 0-.567-.218c-.21-.008-.607.076-1.195.254l-1.105.336z" id="path13"/>
        <path class="fill_schwarz" d="m48.772 64.493 1.374-.08c-.011.65-.16 1.169-.45 1.559-.29.39-.698.656-1.226.795-.732.196-1.364.102-1.893-.278-.624-.44-1.072-1.169-1.346-2.187-.272-1.003-.25-1.869.06-2.598.266-.616.717-1.01 1.355-1.18.71-.188 1.336-.076 1.879.336.624.474 1.092 1.29 1.404 2.451l.044.184-3.285.874c.137.473.342.811.62 1.017.277.204.56.268.853.19.422-.112.625-.472.611-1.083zm-.36-1.626c-.137-.464-.332-.79-.585-.975-.254-.184-.511-.242-.773-.172-.278.074-.477.258-.602.554-.126.3-.126.671-.004 1.115l1.964-.522z" id="path14"/>
        <path class="fill_schwarz" d="m51.148 65.878-.29-1.25 1.272-3.038c.208-.496.362-.85.467-1.062-.15.046-.352.1-.603.162l-1.761.416-.308-1.33 4.133-.947.263 1.136-1.291 3.106-.465 1.04c.36-.112.586-.178.674-.198l2.048-.47.328 1.41-4.467 1.025z" id="path15"/>
        <path class="fill_schwarz" d="m55.038 57.66-.318-1.49 1.332-.282.318 1.49-1.332.282zm1.479 6.906-1.302-6.083 1.332-.28 1.302 6.084-1.332.28z" id="path16"/>
        <path class="fill_schwarz" d="m60.549 63.853-1.336.258-1.193-6.106 1.237-.237.17.867c.132-.448.27-.753.412-.917a.931.931 0 0 1 .543-.312c.304-.058.616-.012.933.136l-.142 1.489c-.254-.134-.48-.182-.677-.144a.699.699 0 0 0-.448.298c-.115.164-.167.43-.16.798.009.37.106 1.03.293 1.985l.368 1.885z" id="path17"/>
        <path class="fill_schwarz" id="polygon17" d="m62.955 63.521-1.5-8.454 1.341-.234.795 4.486 1.179-2.431 1.648-.288-1.332 2.539 2.541 3.562-1.44.252-1.765-2.527-.475.898.348 1.961z"/>
        <path class="fill_schwarz" d="m67.67 60.886 1.311-.438c.207.63.616.902 1.224.816.321-.044.555-.14.696-.286a.582.582 0 0 0 .17-.514.462.462 0 0 0-.148-.305c-.085-.066-.242-.114-.467-.142-1.147-.134-1.887-.314-2.225-.534-.419-.278-.67-.702-.75-1.274-.081-.571.035-1.055.353-1.451.318-.396.825-.642 1.521-.738.664-.094 1.19-.036 1.572.174.382.208.684.588.905 1.142l-1.225.46c-.183-.478-.537-.682-1.062-.608-.332.046-.56.126-.687.24-.126.116-.179.248-.158.398a.4.4 0 0 0 .239.31c.143.075.561.157 1.258.25.778.103 1.326.285 1.635.547.306.26.495.638.566 1.134.084.593-.053 1.113-.409 1.557-.356.443-.895.717-1.62.817-.655.092-1.217.006-1.678-.258-.462-.265-.802-.697-1.022-1.297z" id="path21"/>
        <path class="fill_schwarz" d="m72.543 55.77.748-.091-.056-.464c-.07-.562-.067-.976.01-1.242.074-.263.225-.481.446-.655.222-.172.51-.28.86-.322a3.105 3.105 0 0 1 1.148.072l-.034 1.16a2.302 2.302 0 0 0-.638-.017c-.19.022-.322.094-.394.214-.072.118-.09.336-.05.654l.054.436 1.006-.122.159 1.283-1.006.124.604 4.886-1.346.164-.604-4.886-.749.09-.158-1.283z" id="path22"/>
        <path class="fill_schwarz" d="m76.45 54.497-.159-1.513 1.354-.142.16 1.513-1.355.142zm.744 7.025-.656-6.185 1.355-.142.656 6.185-1.355.142z" id="path23"/>
        <path class="fill_schwarz" d="m79.315 59.569 1.334-.37c.175.64.568.934 1.18.88.323-.028.56-.112.71-.25a.58.58 0 0 0 .199-.506.46.46 0 0 0-.135-.312c-.08-.07-.233-.126-.457-.166-1.139-.194-1.87-.41-2.193-.65-.406-.297-.634-.733-.684-1.309-.05-.576.092-1.051.43-1.431.339-.378.858-.598 1.558-.658.668-.058 1.189.026 1.56.256.371.228.653.624.844 1.187l-1.25.396c-.156-.488-.498-.71-1.027-.664-.332.03-.566.098-.699.206a.433.433 0 0 0-.179.388c.012.136.087.244.224.322.138.082.55.188 1.241.316.775.144 1.31.354 1.606.63.292.275.46.663.505 1.161.052.6-.11 1.112-.49 1.535-.38.426-.933.67-1.66.732-.661.058-1.216-.058-1.663-.346-.447-.288-.765-.738-.954-1.347z" id="path24"/>
        <path class="fill_schwarz" d="m89.486 56.148-1.314.384c-.143-.641-.475-.945-.992-.91a.948.948 0 0 0-.775.477c-.185.293-.253.773-.205 1.44.05.736.19 1.248.415 1.538.225.29.509.422.849.398a.82.82 0 0 0 .61-.302c.152-.186.249-.5.29-.946l1.351.182c-.169 1.516-.905 2.317-2.21 2.407-.834.058-1.476-.214-1.924-.815-.447-.604-.703-1.35-.765-2.237-.076-1.062.097-1.888.513-2.473.419-.588.996-.906 1.739-.958.597-.042 1.098.082 1.499.372.4.288.706.77.919 1.443z" id="path25"/>
        <path class="fill_schwarz" d="m91.892 51.866.11 3.155c.206-.32.436-.562.691-.726a1.65 1.65 0 0 1 .843-.26c.409-.014.755.082 1.036.286.282.206.49.504.622.894.097.286.157.775.181 1.469l.129 3.646-1.356.046-.115-3.282c-.026-.762-.092-1.236-.197-1.423-.147-.252-.384-.372-.714-.362a.935.935 0 0 0-.801.447c-.185.286-.264.81-.238 1.576l.109 3.112-1.36.048-.302-8.58 1.362-.046z" id="path26"/>
        <path class="fill_schwarz" d="m99.864 58.177 1.35.274c-.18.626-.463 1.09-.843 1.392-.382.303-.845.453-1.39.453-.759 0-1.344-.251-1.759-.755-.487-.586-.73-1.406-.73-2.46 0-1.039.245-1.87.736-2.494.417-.528.956-.792 1.616-.792.734 0 1.312.27 1.728.81.48.616.719 1.525.719 2.729l-.006.188h-3.4c.007.491.118.871.331 1.141.216.27.473.404.775.404.436 0 .728-.296.873-.89zm.077-1.663c-.013-.484-.117-.85-.312-1.093-.198-.244-.43-.366-.703-.366-.285 0-.529.128-.724.382-.201.258-.3.615-.296 1.077h2.035z" id="path27"/>
        <path class="fill_schwarz" d="M103.695 60.157h-1.362v-6.22h1.261v.884c.218-.414.41-.688.582-.824a.933.933 0 0 1 .591-.201c.31 0 .608.103.892.311l-.425 1.434c-.225-.178-.436-.268-.638-.268a.685.685 0 0 0-.497.208c-.145.138-.247.388-.31.751-.062.364-.094 1.032-.094 2.003v1.922z" id="path28"/>
        <path class="fill_schwarz" d="m109.25 58.241 1.346.3c-.193.62-.48 1.08-.867 1.376-.386.295-.853.437-1.398.43-.76-.015-1.34-.276-1.743-.786-.477-.594-.706-1.418-.688-2.473.018-1.038.278-1.863.78-2.481.425-.52.968-.774 1.628-.762.735.012 1.306.292 1.713.838.468.626.692 1.54.67 2.74l-.008.189-3.4-.06c0 .491.104.873.313 1.147.21.274.465.412.767.418.436.008.732-.284.887-.876zm.107-1.66c-.004-.485-.1-.85-.294-1.098-.191-.246-.423-.372-.694-.378-.288-.004-.531.118-.73.368-.206.256-.31.611-.314 1.073l2.032.034z" id="path29"/>
        <path class="fill_schwarz" d="m111.993 53.244.054-1.522 1.36.048-.052 1.522-1.362-.048zm-.247 7.056.219-6.213 1.36.046-.22 6.215-1.36-.048z" id="path30"/>
        <path class="fill_schwarz" id="polygon30" d="m114.218 58.126.087-1.644 2.666.14-.087 1.643z"/>
        <path class="fill_schwarz" id="polygon31" d="m119.6 60.856-1.766-8.772 1.545.134 1.227 6.485 2.284-6.179 1.513.132-3.278 8.332z"/>
        <path class="fill_schwarz" d="m127.017 59.65 1.314.414c-.246.602-.574 1.034-.984 1.296-.41.262-.887.364-1.43.308-.755-.08-1.312-.39-1.669-.934-.422-.634-.58-1.475-.468-2.523.108-1.033.44-1.835.996-2.405.468-.481 1.032-.687 1.688-.617.732.076 1.275.404 1.633.981.413.664.554 1.594.43 2.79l-.027.185-3.382-.352c-.045.49.026.88.21 1.17.184.29.427.451.73.481.432.046.752-.218.959-.793zm.252-1.647c.04-.481-.027-.855-.196-1.117-.169-.264-.39-.41-.66-.438-.283-.03-.539.072-.76.304-.226.236-.362.582-.407 1.042l2.023.21z" id="path31"/>
        <path class="fill_schwarz" d="m130.64 62.114-1.348-.188.871-6.158 1.25.175-.125.875c.272-.38.503-.626.69-.736a.94.94 0 0 1 .616-.118c.308.044.585.188.837.432l-.62 1.362c-.197-.208-.394-.328-.594-.356a.697.697 0 0 0-.523.138c-.16.118-.297.352-.41.701-.115.352-.238 1.008-.374 1.972l-.27 1.9z" id="path32"/>
        <path class="fill_schwarz" d="m136.328 60.934 1.29.482c-.278.588-.628 1.004-1.053 1.241-.422.24-.905.318-1.444.234-.749-.118-1.288-.457-1.616-1.02-.388-.653-.5-1.5-.334-2.542.163-1.026.537-1.81 1.12-2.349.494-.456 1.067-.634 1.72-.53.725.114 1.25.47 1.579 1.066.376.683.468 1.619.28 2.806l-.037.184-3.358-.527c-.069.487-.02.88.149 1.18.169.299.404.47.702.519.43.068.765-.18 1.002-.744zm.338-1.631c.064-.48.018-.856-.137-1.128-.157-.27-.368-.427-.636-.47-.283-.043-.54.045-.774.265-.24.223-.393.561-.461 1.017l2.008.316z" id="path33"/>
        <path class="fill_schwarz" d="m139.813 56.324.268-1.499 1.34.236-.266 1.5-1.342-.237zm-1.233 6.955 1.086-6.125 1.34.236-1.086 6.123-1.34-.234z" id="path34"/>
        <path class="fill_schwarz" d="m145.791 64.654-1.336-.258.61-3.114c.122-.626.179-1.046.169-1.263a.86.86 0 0 0-.188-.53.732.732 0 0 0-.432-.258.984.984 0 0 0-.65.098c-.21.11-.376.284-.499.522-.123.24-.254.71-.39 1.411l-.541 2.765-1.337-.258 1.196-6.105 1.237.238-.175.897c.288-.302.586-.514.895-.632.31-.12.632-.147.968-.082.388.074.698.238.928.492.227.254.362.548.402.884.04.336.002.801-.115 1.4l-.742 3.793z" id="path35"/>
        <path class="fill_schwarz" d="m153.252 64.28 1.241.592c-.325.562-.712.944-1.154 1.148-.445.202-.932.236-1.461.106-.737-.184-1.244-.568-1.521-1.156-.33-.685-.366-1.54-.109-2.563.252-1.007.692-1.755 1.322-2.243.531-.411 1.119-.537 1.758-.38.715.179 1.208.578 1.48 1.2.315.714.325 1.655.034 2.82l-.053.18-3.3-.817c-.112.48-.096.876.047 1.19.14.311.36.505.652.577.424.106.778-.114 1.064-.653zm.479-1.595c.107-.471.095-.851-.036-1.135-.133-.284-.33-.458-.592-.524-.28-.068-.545-.004-.797.196-.257.202-.44.526-.549.974l1.974.49z" id="path36"/>
        <path class="fill_schwarz" id="polygon36" d="m155.141 66.817.428-1.589 1.316.35-.428 1.59z"/>
        <path class="fill_schwarz" id="polygon37" d="m159.624 68.087.108-8.944 1.481.452-.155 6.595 3.526-5.572 1.454.442-4.949 7.473z"/>
        <path class="fill_schwarz" id="polygon38" d="m163.336 69.25.511-1.563 1.296.418-.513 1.565z"/>
        <path class="fill_schwarz" id="polygon39" d="m65.085 77.873-1.344-8.48 5.16-.815.226 1.433-3.759.596.298 1.879 3.493-.552.226 1.427-3.493.554.366 2.307 3.886-.616.226 1.43z"/>
        <path class="fill_schwarz" d="m71.654 68.118.437 3.126c.17-.34.372-.603.608-.791.236-.19.504-.306.806-.348.401-.056.753.002 1.053.178.302.174.536.448.708.821.126.276.236.756.334 1.444l.507 3.614-1.335.188-.456-3.255c-.106-.753-.222-1.219-.344-1.393-.171-.238-.42-.332-.745-.286a.928.928 0 0 0-.744.526c-.152.304-.176.836-.07 1.593l.434 3.085-1.34.188-1.195-8.502 1.342-.188z" id="path39"/>
        <path class="fill_schwarz" d="m76.787 69.087-.158-1.513 1.346-.142.158 1.513-1.346.142zm.74 7.025-.652-6.185 1.345-.142.652 6.185-1.345.142z" id="path40"/>
        <path class="fill_schwarz" d="m84.881 75.36-1.347.118-.276-3.162c-.056-.634-.118-1.054-.188-1.26a.858.858 0 0 0-.324-.457.717.717 0 0 0-.485-.128.95.95 0 0 0-.592.272 1.152 1.152 0 0 0-.334.637c-.05.262-.046.75.018 1.462l.244 2.806-1.347.118-.542-6.195 1.25-.11.077.91c.192-.368.418-.654.682-.852.262-.2.564-.314.901-.344.392-.034.734.038 1.022.218.288.182.498.428.628.74.132.312.224.771.277 1.377l.336 3.85z" id="path41"/>
        <path class="fill_schwarz" d="m86.045 75.726 1.557.146c.034.226.114.382.238.472.124.09.314.128.572.114.296-.016.533-.078.711-.184a.693.693 0 0 0 .28-.368c.062-.166.082-.458.06-.87l-.048-.907c-.184.346-.4.61-.644.792-.245.18-.521.278-.83.295-.565.029-1.053-.201-1.467-.691-.473-.562-.737-1.342-.79-2.34-.055-1.06.113-1.872.503-2.434.392-.562.883-.858 1.481-.89a1.56 1.56 0 0 1 .875.206c.268.154.512.396.734.724l-.046-.87 1.264-.068.292 5.574c.045.893-.003 1.545-.144 1.955-.144.41-.38.726-.71.95-.332.221-.798.35-1.403.38-.558.03-1.008-.02-1.35-.153a1.633 1.633 0 0 1-.803-.623c-.194-.284-.3-.62-.32-1.006l-.012-.204zm1.013-3.706c.036.662.168 1.14.396 1.433.228.292.492.432.794.416.321-.018.591-.186.805-.506.214-.32.304-.793.272-1.421-.034-.648-.17-1.121-.406-1.42-.238-.297-.517-.437-.841-.421-.32.016-.578.182-.774.498-.196.316-.278.79-.246 1.42z" id="path42"/>
        <path class="fill_schwarz" d="m95.049 72.882 1.349.228c-.158.63-.42 1.103-.788 1.419-.368.314-.823.482-1.365.502-.754.026-1.343-.206-1.771-.696-.504-.568-.774-1.377-.812-2.43-.036-1.038.18-1.878.646-2.52.394-.542.92-.823 1.575-.845.73-.026 1.312.224 1.743.747.498.6.768 1.5.81 2.701v.188l-3.377.118c.025.492.148.867.37 1.13.222.261.484.387.784.377.434-.016.712-.322.836-.92zm.017-1.666c-.027-.483-.143-.843-.347-1.081-.204-.236-.44-.35-.71-.34-.284.01-.52.144-.706.404-.19.266-.275.628-.256 1.087l2.02-.07z" id="path43"/>
        <path class="fill_schwarz" d="M102.271 74.747h-1.353v-3.175c0-.635-.026-1.06-.076-1.271a.87.87 0 0 0-.284-.486.732.732 0 0 0-.472-.17.968.968 0 0 0-.616.22 1.164 1.164 0 0 0-.386.606c-.074.258-.112.743-.112 1.459v2.817h-1.35v-6.22h1.253v.914c.222-.352.471-.615.751-.791.28-.176.588-.264.928-.264.396 0 .727.104 1 .308.271.205.457.47.561.791.104.322.156.788.156 1.396v3.866z" id="path44"/>
        <path class="fill_schwarz" id="polygon44" d="m102.921 74.893 1.745-8.878h1.014l-1.764 8.878z"/>
        <path class="fill_schwarz" d="m106.675 66.073 2.593.09c.655.024 1.147.114 1.475.272.328.157.628.415.896.771.27.358.474.816.613 1.375.142.56.198 1.252.168 2.076-.026.74-.132 1.38-.318 1.925-.187.541-.415.967-.683 1.28-.27.309-.588.539-.96.689-.37.15-.841.214-1.415.194l-2.669-.094.3-8.578zm1.365 1.501-.198 5.681 1.066.038c.456.016.788-.016.995-.094.208-.08.38-.204.518-.372.136-.17.254-.44.352-.811.1-.372.16-.864.182-1.475.022-.636-.004-1.14-.08-1.51-.074-.37-.202-.663-.38-.88a1.3 1.3 0 0 0-.661-.44c-.196-.057-.58-.095-1.15-.115l-.644-.022z" id="path45"/>
        <path class="fill_schwarz" d="M113.326 71.814a3.765 3.765 0 0 1 .45-1.641c.268-.488.602-.844 1.005-1.074.404-.23.848-.332 1.336-.306.82.044 1.445.398 1.879 1.064.434.666.63 1.427.583 2.285a4.029 4.029 0 0 1-.455 1.713c-.27.502-.61.872-1.02 1.11-.41.237-.85.345-1.321.32-.758-.039-1.37-.36-1.84-.964-.467-.604-.673-1.44-.617-2.507zm1.375.16c-.034.628.064 1.11.294 1.443.228.334.516.512.864.53.338.018.637-.13.895-.44.26-.312.406-.781.438-1.413.032-.618-.066-1.094-.294-1.43-.228-.335-.513-.513-.857-.531-.34-.018-.64.128-.9.44-.26.31-.408.777-.44 1.401z" id="path46"/>
        <path class="fill_schwarz" d="m124.101 75.812-1.347-.118.276-3.16c.055-.636.067-1.06.035-1.274a.872.872 0 0 0-.24-.51.738.738 0 0 0-.455-.21.959.959 0 0 0-.632.167c-.196.13-.342.32-.438.57-.096.25-.176.73-.238 1.443l-.245 2.804-1.348-.118.542-6.195 1.25.11-.08.91c.251-.33.525-.57.817-.722.294-.15.61-.21.948-.182.393.036.715.166.97.394.25.228.415.508.489.838.076.33.086.797.034 1.403l-.338 3.85z" id="path47"/>
        <path class="fill_schwarz" d="m126.944 71.706-1.19-.396c.212-.607.504-1.033.872-1.271.37-.238.872-.322 1.51-.256.565.06.99.184 1.273.376.282.19.474.43.572.716.1.287.112.791.036 1.515l-.212 1.909c-.058.536-.078.937-.062 1.203.014.266.064.554.15.862l-1.328-.14-.104-.694a2.475 2.475 0 0 1-.801.534 1.812 1.812 0 0 1-.856.116c-.494-.052-.88-.26-1.16-.626-.28-.366-.391-.823-.333-1.375.038-.348.134-.648.29-.894.154-.246.358-.435.605-.565.25-.132.638-.23 1.162-.296.637-.08 1.083-.168 1.341-.266.036-.342.036-.568-.002-.68a.57.57 0 0 0-.24-.292c-.124-.08-.304-.134-.54-.16-.24-.024-.435.01-.585.104-.148.094-.282.286-.398.576zm1.653 1.517a6.798 6.798 0 0 1-.823.162c-.426.064-.712.156-.854.274a.715.715 0 0 0-.246.494.883.883 0 0 0 .15.618.685.685 0 0 0 .508.298c.19.02.386-.024.586-.136.2-.11.345-.25.435-.422.09-.17.16-.492.21-.962l.034-.326z" id="path48"/>
        <path class="fill_schwarz" d="m134.152 77.112.13-.924a2.102 2.102 0 0 1-.84.678 1.776 1.776 0 0 1-.985.148 1.581 1.581 0 0 1-.856-.386c-.238-.21-.4-.486-.484-.826-.086-.338-.084-.813.002-1.423l.548-3.898 1.34.188-.398 2.83c-.114.808-.166 1.324-.156 1.548.01.225.076.405.198.545.122.14.281.224.48.252a.973.973 0 0 0 .653-.148c.212-.13.364-.314.458-.551.096-.236.202-.772.318-1.608l.365-2.599 1.334.188-.866 6.16-1.241-.174z" id="path49"/>
    </g>
</svg>
